<svg width="200" height="200" viewBox="0 0 200 200" fill="none" xmlns="http://www.w3.org/2000/svg">
<rect width="200" height="200" fill="#E5E5E5"/>
<rect width="200" height="200" fill="white"/>
<path d="M113.215 14.782V89.3726C113.215 90.4529 112.81 91.4889 112.088 92.2528C111.365 93.0167 110.386 93.4458 109.365 93.4458C108.343 93.4458 107.364 93.0167 106.642 92.2528C105.92 91.4889 105.514 90.4529 105.514 89.3726V14.782C105.514 12.5316 107.237 14.2729 109.365 14.2729C110.428 14.2729 110.351 13.028 111.049 13.7637C111.745 14.502 113.215 13.6568 113.215 14.782Z" fill="#A0616A"/>
<path opacity="0.1" d="M113.215 16.6913H105.514V19.7462H113.215V16.6913Z" fill="black"/>
<path opacity="0.1" d="M113.215 26.3652H105.514V29.4201H113.215V26.3652Z" fill="black"/>
<path opacity="0.1" d="M113.215 36.0391H105.514V39.094H113.215V36.0391Z" fill="black"/>
<path opacity="0.1" d="M113.215 45.7129H105.514V48.7678H113.215V45.7129Z" fill="black"/>
<path opacity="0.1" d="M113.215 55.3868H105.514V58.4417H113.215V55.3868Z" fill="black"/>
<path opacity="0.1" d="M113.215 65.0607H105.514V68.1156H113.215V65.0607Z" fill="black"/>
<path opacity="0.1" d="M113.215 74.7345H105.514V77.7894H113.215V74.7345Z" fill="black"/>
<path opacity="0.1" d="M113.215 84.4083H105.514V87.4632H113.215V84.4083Z" fill="black"/>
<path d="M109.365 15.5458C111.491 15.5458 113.215 14.9759 113.215 14.2729C113.215 13.5699 111.491 13 109.365 13C107.238 13 105.514 13.5699 105.514 14.2729C105.514 14.9759 107.238 15.5458 109.365 15.5458Z" fill="#A0616A"/>
<path opacity="0.1" d="M109.365 15.5458C111.491 15.5458 113.215 14.9759 113.215 14.2729C113.215 13.5699 111.491 13 109.365 13C107.238 13 105.514 13.5699 105.514 14.2729C105.514 14.9759 107.238 15.5458 109.365 15.5458Z" fill="black"/>
<path d="M149.3 30.6164L104.68 88.3747C104.36 88.7891 103.966 89.1327 103.521 89.3859C103.075 89.6392 102.587 89.7971 102.084 89.8507C101.581 89.9043 101.073 89.8526 100.588 89.6984C100.104 89.5442 99.6531 89.2906 99.2615 88.9521C98.8699 88.6136 98.5451 88.1967 98.3058 87.7255C98.0665 87.2542 97.9173 86.7376 97.8667 86.2053C97.8161 85.673 97.8652 85.1354 98.0111 84.6232C98.157 84.1109 98.3968 83.6341 98.7169 83.2199L143.337 25.4616C144.683 23.719 144.976 26.2207 146.623 27.6447C147.447 28.3567 148.132 27.3412 148.232 28.3781C148.329 29.4153 149.974 29.7451 149.3 30.6164Z" fill="#A0616A"/>
<path opacity="0.1" d="M142.195 26.94L140.367 29.3055L146.331 34.4604L148.158 32.0948L142.195 26.94Z" fill="black"/>
<path opacity="0.1" d="M136.408 34.4309L134.58 36.7964L140.544 41.9512L142.371 39.5857L136.408 34.4309Z" fill="black"/>
<path opacity="0.1" d="M130.621 41.9217L128.794 44.2872L134.757 49.442L136.584 47.0765L130.621 41.9217Z" fill="black"/>
<path opacity="0.1" d="M124.834 49.4126L123.007 51.7781L128.97 56.9329L130.797 54.5674L124.834 49.4126Z" fill="black"/>
<path opacity="0.1" d="M119.047 56.9035L117.22 59.269L123.183 64.4238L125.011 62.0583L119.047 56.9035Z" fill="black"/>
<path opacity="0.1" d="M113.26 64.3942L111.433 66.7598L117.396 71.9146L119.224 69.5491L113.26 64.3942Z" fill="black"/>
<path opacity="0.1" d="M107.473 71.8847L105.646 74.2502L111.609 79.4051L113.437 77.0395L107.473 71.8847Z" fill="black"/>
<path opacity="0.1" d="M101.686 79.3759L99.859 81.7415L105.822 86.8963L107.65 84.5308L101.686 79.3759Z" fill="black"/>
<path d="M149.605 30.2222C150.026 29.6778 149.031 28.0826 147.385 26.6591C145.738 25.2357 144.062 24.523 143.642 25.0673C143.221 25.6117 144.215 27.2069 145.862 28.6304C147.509 30.0539 149.184 30.7665 149.605 30.2222Z" fill="#A0616A"/>
<path opacity="0.1" d="M149.605 30.2222C150.026 29.6778 149.031 28.0826 147.385 26.6591C145.738 25.2357 144.062 24.523 143.642 25.0673C143.221 25.6117 144.215 27.2069 145.862 28.6304C147.509 30.0539 149.184 30.7665 149.605 30.2222Z" fill="black"/>
<path d="M148.934 99.8102H138.629L138.704 97.7711L139.147 85.7246L139.369 79.7395H67.609L67.7221 82.802L68.0157 90.7881L68.5741 105.943L68.9471 116.032L69.4285 129.081L69.8376 140.227L69.9555 143.432L69.9579 143.47L70.0157 145.066L70.1649 149.065L70.1793 149.511L70.2804 152.225L70.2973 152.714L70.4441 156.657L70.574 160.211L70.6198 161.438L70.6414 161.995L70.6607 162.535C70.6581 164.367 70.995 166.181 71.6522 167.876C71.8247 168.325 72.0199 168.763 72.237 169.19C73.8233 172.322 76.4676 174.706 79.6424 175.867C80.0615 176.022 80.488 176.154 80.9203 176.262C81.9288 176.515 82.9619 176.643 83.9984 176.641H122.977C124.937 176.644 126.875 176.188 128.649 175.307C130.625 174.319 132.343 172.836 133.655 170.987C134.213 170.203 134.69 169.359 135.08 168.469C135.111 168.398 135.143 168.327 135.169 168.255C135.833 166.683 136.215 164.993 136.295 163.273C136.307 163.029 136.315 162.782 136.315 162.535L136.44 159.136L136.594 154.964L136.608 154.549L136.768 150.216H148.934C153.247 150.211 157.381 148.397 160.43 145.171C163.479 141.946 165.195 137.573 165.199 133.011V117.015C165.195 112.454 163.479 108.081 160.43 104.855C157.381 101.63 153.247 99.8154 148.934 99.8102V99.8102ZM155.573 133.011C155.571 134.873 154.871 136.658 153.626 137.974C152.382 139.29 150.694 140.031 148.934 140.033H137.146L137.147 139.987L137.258 136.978L137.342 134.682L137.819 121.765L138.252 109.993H148.934C150.694 109.995 152.382 110.736 153.626 112.052C154.871 113.369 155.571 115.154 155.573 117.015L155.573 133.011Z" fill="#3F3D56"/>
<path d="M84.8727 33.055C89.1735 33.055 92.6599 29.367 92.6599 24.8177C92.6599 20.2684 89.1735 16.5804 84.8727 16.5804C80.5719 16.5804 77.0854 20.2684 77.0854 24.8177C77.0854 29.367 80.5719 33.055 84.8727 33.055Z" fill="#D0CDE1"/>
<path d="M89.7627 52.5795C95.6691 52.5795 100.457 47.5147 100.457 41.267C100.457 35.0193 95.6691 29.9545 89.7627 29.9545C83.8563 29.9545 79.0682 35.0193 79.0682 41.267C79.0682 47.5147 83.8563 52.5795 89.7627 52.5795Z" fill="#D0CDE1"/>
<path d="M92.9107 28.5915L80.6201 32.6797C80.5293 32.7099 80.4536 32.777 80.4096 32.8663C80.3656 32.9555 80.3569 33.0597 80.3854 33.1557L80.6061 33.8982C80.6203 33.9458 80.6431 33.9899 80.6734 34.0281C80.7037 34.0663 80.7408 34.0979 80.7826 34.1209C80.8243 34.144 80.87 34.1581 80.917 34.1625C80.9639 34.1669 81.0112 34.1614 81.0562 34.1465L83.1451 33.4517L83.4261 33.598L84.5169 44.2577L86.2455 45.5455L85.068 34.4534L92.9913 38.5811L94.6808 37.6738L85.2658 32.7462L93.3467 30.0583C93.3917 30.0433 93.4334 30.0191 93.4696 29.9871C93.5057 29.9551 93.5355 29.9159 93.5573 29.8717C93.5791 29.8275 93.5924 29.7791 93.5966 29.7295C93.6007 29.6798 93.5956 29.6298 93.5815 29.5822L93.3607 28.8397C93.3466 28.7922 93.3237 28.748 93.2935 28.7098C93.2632 28.6716 93.2261 28.6401 93.1843 28.617C93.1425 28.594 93.0969 28.5798 93.0499 28.5754C93.003 28.5711 92.9557 28.5765 92.9107 28.5915V28.5915Z" fill="#6C63FF"/>
<path d="M79.6911 22.2814C79.6911 22.2814 82.3734 19.5395 82.1946 18.9383C82.0159 18.3372 80.2295 16.9495 77.9562 17.7057C77.9562 17.7057 77.0662 16.8127 76.6344 17.8811C76.2026 18.9496 77.4043 19.2105 77.4043 19.2105C77.4043 19.2105 76.7974 21.7906 79.0092 22.5082L79.6911 22.2814Z" fill="#6C63FF"/>
<path d="M81.6321 24.8276C81.9762 24.8276 82.2551 24.5326 82.2551 24.1686C82.2551 23.8047 81.9762 23.5096 81.6321 23.5096C81.2881 23.5096 81.0092 23.8047 81.0092 24.1686C81.0092 24.5326 81.2881 24.8276 81.6321 24.8276Z" fill="#3F3D56"/>
<path d="M87.1789 22.9826C87.5229 22.9826 87.8018 22.6876 87.8018 22.3237C87.8018 21.9597 87.5229 21.6647 87.1789 21.6647C86.8348 21.6647 86.5559 21.9597 86.5559 22.3237C86.5559 22.6876 86.8348 22.9826 87.1789 22.9826Z" fill="#3F3D56"/>
<path d="M85.3551 24.427L84.2656 24.7894L85.3246 28.3517L86.4141 27.9893L85.3551 24.427Z" fill="#FF6584"/>
<path d="M88.8084 37.9835C89.1525 37.9835 89.4314 37.6884 89.4314 37.3245C89.4314 36.9606 89.1525 36.6655 88.8084 36.6655C88.4643 36.6655 88.1854 36.9606 88.1854 37.3245C88.1854 37.6884 88.4643 37.9835 88.8084 37.9835Z" fill="#3F3D56"/>
<path d="M89.4936 40.2884C89.8376 40.2884 90.1166 39.9934 90.1166 39.6294C90.1166 39.2655 89.8376 38.9705 89.4936 38.9705C89.1495 38.9705 88.8706 39.2655 88.8706 39.6294C88.8706 39.9934 89.1495 40.2884 89.4936 40.2884Z" fill="#3F3D56"/>
<path d="M90.1788 42.5935C90.5228 42.5935 90.8017 42.2984 90.8017 41.9345C90.8017 41.5706 90.5228 41.2755 90.1788 41.2755C89.8347 41.2755 89.5558 41.5706 89.5558 41.9345C89.5558 42.2984 89.8347 42.5935 90.1788 42.5935Z" fill="#3F3D56"/>
<path d="M86.2585 29.4793C85.2665 29.7956 84.2154 29.8439 83.2012 29.6199L83.24 29.4041C84.2195 29.6333 85.2387 29.5864 86.1957 29.2681C87.1526 28.9498 88.0137 28.3712 88.6929 27.5903L88.8416 27.7437C88.1311 28.5414 87.2431 29.1381 86.2585 29.4793V29.4793Z" fill="#3F3D56"/>
<path d="M89.3242 24.2316C89.6109 24.2316 89.8433 23.9857 89.8433 23.6825C89.8433 23.3792 89.6109 23.1333 89.3242 23.1333C89.0375 23.1333 88.8051 23.3792 88.8051 23.6825C88.8051 23.9857 89.0375 24.2316 89.3242 24.2316Z" fill="#FF6584"/>
<path d="M80.608 27.1308C80.8947 27.1308 81.1272 26.8849 81.1272 26.5816C81.1272 26.2783 80.8947 26.0325 80.608 26.0325C80.3213 26.0325 80.0889 26.2783 80.0889 26.5816C80.0889 26.8849 80.3213 27.1308 80.608 27.1308Z" fill="#FF6584"/>
<path d="M113.442 111.175C114.117 111.175 114.665 110.596 114.665 109.882C114.665 109.168 114.117 108.589 113.442 108.589C112.767 108.589 112.22 109.168 112.22 109.882C112.22 110.596 112.767 111.175 113.442 111.175Z" fill="#D0CDE1"/>
<path d="M117.293 132.559C117.968 132.559 118.515 131.98 118.515 131.266C118.515 130.552 117.968 129.973 117.293 129.973C116.618 129.973 116.071 130.552 116.071 131.266C116.071 131.98 116.618 132.559 117.293 132.559Z" fill="#D0CDE1"/>
<path d="M93.2262 137.905C93.9013 137.905 94.4486 137.326 94.4486 136.612C94.4486 135.898 93.9013 135.319 93.2262 135.319C92.5512 135.319 92.0039 135.898 92.0039 136.612C92.0039 137.326 92.5512 137.905 93.2262 137.905Z" fill="#D0CDE1"/>
<path d="M105.5 162.344C106.175 162.344 106.723 161.765 106.723 161.051C106.723 160.337 106.175 159.758 105.5 159.758C104.825 159.758 104.278 160.337 104.278 161.051C104.278 161.765 104.825 162.344 105.5 162.344Z" fill="#D0CDE1"/>
<path d="M78.0643 142.742C78.7393 142.742 79.2866 142.163 79.2866 141.449C79.2866 140.735 78.7393 140.156 78.0643 140.156C77.3892 140.156 76.8419 140.735 76.8419 141.449C76.8419 142.163 77.3892 142.742 78.0643 142.742Z" fill="#D0CDE1"/>
<path d="M77.1016 117.794C77.7767 117.794 78.3239 117.215 78.3239 116.501C78.3239 115.787 77.7767 115.208 77.1016 115.208C76.4265 115.208 75.8793 115.787 75.8793 116.501C75.8793 117.215 76.4265 117.794 77.1016 117.794Z" fill="#D0CDE1"/>
<path d="M127.882 107.865C128.557 107.865 129.105 107.286 129.105 106.572C129.105 105.858 128.557 105.279 127.882 105.279C127.207 105.279 126.66 105.858 126.66 106.572C126.66 107.286 127.207 107.865 127.882 107.865Z" fill="#D0CDE1"/>
<path d="M89.6162 161.071C90.2913 161.071 90.8386 160.493 90.8386 159.778C90.8386 159.064 90.2913 158.485 89.6162 158.485C88.9412 158.485 88.3939 159.064 88.3939 159.778C88.3939 160.493 88.9412 161.071 89.6162 161.071Z" fill="#D0CDE1"/>
<path d="M83.5996 102.47C84.5148 102.47 85.2567 101.685 85.2567 100.717C85.2567 99.7489 84.5148 98.9641 83.5996 98.9641C82.6844 98.9641 81.9425 99.7489 81.9425 100.717C81.9425 101.685 82.6844 102.47 83.5996 102.47Z" fill="#D0CDE1"/>
<path d="M99.965 120.799C100.88 120.799 101.622 120.015 101.622 119.046C101.622 118.078 100.88 117.294 99.965 117.294C99.0498 117.294 98.3079 118.078 98.3079 119.046C98.3079 120.015 99.0498 120.799 99.965 120.799Z" fill="#D0CDE1"/>
<path d="M121.144 157.713C122.059 157.713 122.801 156.928 122.801 155.96C122.801 154.992 122.059 154.207 121.144 154.207C120.228 154.207 119.487 154.992 119.487 155.96C119.487 156.928 120.228 157.713 121.144 157.713Z" fill="#D0CDE1"/>
<path d="M103.488 84.3526C123.348 84.3526 139.448 82.2872 139.448 79.7393C139.448 77.1914 123.348 75.126 103.488 75.126C83.6275 75.126 67.5276 77.1914 67.5276 79.7393C67.5276 82.2872 83.6275 84.3526 103.488 84.3526Z" fill="#A0616A"/>
<path d="M104.38 31.9892C104.38 31.9892 105.487 41.1321 94.7958 44.2012C84.1051 47.2702 81.352 53.9029 81.352 53.9029C81.352 53.9029 69.9184 57.2213 76.9144 64.7337C76.9144 64.7337 60.6803 76.5828 76.5369 81.4675C92.3934 86.3521 135.23 83.0465 133.435 73.7887C133.435 73.7887 135.663 69.4947 130.498 68.6331C130.498 68.6331 137.69 58.2618 119.532 52.2467C119.532 52.2467 122.485 49.0067 114.585 49.9284C114.585 49.9284 119.51 28.7276 104.38 31.9892Z" fill="#D0CDE1"/>
<path d="M81.167 54.4247L81.1384 53.688C93.8432 53.1369 100.82 48.9449 104.435 45.5252C108.341 41.8308 109.271 38.2184 109.28 38.1823L109.955 38.3679C109.917 38.5223 108.981 42.1951 104.941 46.0357C101.241 49.5528 94.1133 53.8631 81.167 54.4247Z" fill="#A0616A"/>
<path d="M76.7925 65.2467L76.6376 64.5276C76.6925 64.5145 82.3114 63.1644 97.8098 59.8445C108.419 57.5719 110.96 55.2366 111.531 54.0468C111.649 53.8482 111.694 53.6114 111.659 53.3801L112.292 53.0715C112.316 53.1263 112.515 53.6273 112.153 54.3805C111.386 55.979 108.299 58.3499 97.9482 60.5671C82.4606 63.8849 76.8474 65.2334 76.7925 65.2467Z" fill="#A0616A"/>
<path d="M83.8158 68.2833C83.7499 68.2833 83.7017 68.2831 83.6721 68.2829L83.6759 67.5455C83.9174 67.5487 109.184 67.5822 116.96 58.7404C118.613 56.8614 119.361 54.6862 119.185 52.2753L119.88 52.2184C120.072 54.8434 119.261 57.2069 117.47 59.243C109.711 68.0651 86.0998 68.2833 83.8158 68.2833Z" fill="#A0616A"/>
<path d="M113.41 77.3437C113.387 77.3437 113.374 77.3435 113.37 77.3435L113.381 76.6061C113.499 76.6048 125.559 76.6898 130.199 68.4446L130.798 68.8219C126.086 77.1946 114.188 77.3437 113.41 77.3437Z" fill="#A0616A"/>
<path d="M106.064 31.4801C106.064 31.4801 107.171 40.623 96.4806 43.692C85.7899 46.7611 83.0367 53.3937 83.0367 53.3937C83.0367 53.3937 71.6031 56.7121 78.5991 64.2246C78.5991 64.2246 62.365 76.0737 78.2215 80.9583C94.0781 85.8429 136.915 82.5374 135.119 73.2796C135.119 73.2796 137.347 68.9855 132.183 68.124C132.183 68.124 139.375 57.7526 121.217 51.7376C121.217 51.7376 124.17 48.4976 116.269 49.4192C116.269 49.4192 121.194 28.2184 106.064 31.4801Z" fill="#D0CDE1"/>
<path d="M82.8517 53.9155L82.8231 53.1788C95.5278 52.6277 102.504 48.4357 106.12 45.016C110.026 41.3216 110.956 37.7093 110.965 37.6731L111.64 37.8587C111.602 38.0132 110.666 41.686 106.626 45.5266C102.926 49.0437 95.7979 53.354 82.8517 53.9155Z" fill="#A0616A"/>
<path d="M78.4771 64.7375L78.3223 64.0185C78.3772 64.0053 83.9961 62.6553 99.4945 59.3353C110.103 57.0628 112.645 54.7274 113.216 53.5376C113.334 53.339 113.379 53.1022 113.344 52.8709L113.977 52.5624C114.001 52.6171 114.199 53.1181 113.838 53.8714C113.071 55.4699 109.984 57.8407 99.6329 60.058C84.1453 63.3758 78.5321 64.7242 78.4771 64.7375Z" fill="#A0616A"/>
<path d="M85.5004 67.7741C85.4346 67.7741 85.3864 67.7739 85.3568 67.7738L85.3605 67.0364C85.6021 67.0396 110.869 67.0731 118.645 58.2312C120.298 56.3522 121.046 54.1771 120.869 51.7661L121.564 51.7092C121.757 54.3343 120.946 56.6977 119.155 58.7339C111.396 67.5559 87.7845 67.7741 85.5004 67.7741Z" fill="#A0616A"/>
<path d="M115.094 76.8345C115.072 76.8345 115.059 76.8344 115.055 76.8344L115.065 76.097C115.183 76.0957 127.243 76.1807 131.883 67.9354L132.482 68.3128C127.771 76.6855 115.872 76.8345 115.094 76.8345Z" fill="#A0616A"/>
</svg>
